<svg id="mermaid-svg" width="100%" xmlns="http://www.w3.org/2000/svg" xmlns:xlink="http://www.w3.org/1999/xlink" height="514" style="max-width: 564px;" viewBox="-20 -20 564 514"><style>#mermaid-svg{font-family:"trebuchet ms",verdana,arial;font-size:16px;fill:#333;}#mermaid-svg .error-icon{fill:#552222;}#mermaid-svg .error-text{fill:#552222;stroke:#552222;}#mermaid-svg .edge-thickness-normal{stroke-width:2px;}#mermaid-svg .edge-thickness-thick{stroke-width:3.5px;}#mermaid-svg .edge-pattern-solid{stroke-dasharray:0;}#mermaid-svg .edge-pattern-dashed{stroke-dasharray:3;}#mermaid-svg .edge-pattern-dotted{stroke-dasharray:2;}#mermaid-svg .marker{fill:#333333;}#mermaid-svg .marker.cross{stroke:#333333;}#mermaid-svg svg{font-family:"trebuchet ms",verdana,arial;font-size:16px;}#mermaid-svg g.classGroup text{fill:#9370DB;fill:#131300;stroke:none;font-family:"trebuchet ms",verdana,arial;font-size:10px;}#mermaid-svg g.classGroup text .title{font-weight:bolder;}#mermaid-svg .classTitle{font-weight:bolder;}#mermaid-svg .node rect,#mermaid-svg .node circle,#mermaid-svg .node ellipse,#mermaid-svg .node polygon,#mermaid-svg .node path{fill:#ECECFF;stroke:#9370DB;stroke-width:1px;}#mermaid-svg .divider{stroke:#9370DB;stroke:1;}#mermaid-svg g.clickable{cursor:pointer;}#mermaid-svg g.classGroup rect{fill:#ECECFF;stroke:#9370DB;}#mermaid-svg g.classGroup line{stroke:#9370DB;stroke-width:1;}#mermaid-svg .classLabel .box{stroke:none;stroke-width:0;fill:#ECECFF;opacity:0.5;}#mermaid-svg .classLabel .label{fill:#9370DB;font-size:10px;}#mermaid-svg .relation{stroke:#333333;stroke-width:1;fill:none;}#mermaid-svg .dashed-line{stroke-dasharray:3;}#mermaid-svg #compositionStart,#mermaid-svg .composition{fill:#333333 !important;stroke:#333333 !important;stroke-width:1;}#mermaid-svg #compositionEnd,#mermaid-svg .composition{fill:#333333 !important;stroke:#333333 !important;stroke-width:1;}#mermaid-svg #dependencyStart,#mermaid-svg .dependency{fill:#333333 !important;stroke:#333333 !important;stroke-width:1;}#mermaid-svg #dependencyStart,#mermaid-svg .dependency{fill:#333333 !important;stroke:#333333 !important;stroke-width:1;}#mermaid-svg #extensionStart,#mermaid-svg .extension{fill:#333333 !important;stroke:#333333 !important;stroke-width:1;}#mermaid-svg #extensionEnd,#mermaid-svg .extension{fill:#333333 !important;stroke:#333333 !important;stroke-width:1;}#mermaid-svg #aggregationStart,#mermaid-svg .aggregation{fill:#ECECFF !important;stroke:#333333 !important;stroke-width:1;}#mermaid-svg #aggregationEnd,#mermaid-svg .aggregation{fill:#ECECFF !important;stroke:#333333 !important;stroke-width:1;}#mermaid-svg .edgeTerminals{font-size:11px;}#mermaid-svg:root{--mermaid-font-family:"trebuchet ms",verdana,arial;}#mermaid-svg class{fill:apa;}</style><g></g><defs><marker id="extensionStart" class="extension" refX="0" refY="7" markerWidth="190" markerHeight="240" orient="auto"><path d="M 1,7 L18,13 V 1 Z"></path></marker></defs><defs><marker id="extensionEnd" refX="19" refY="7" markerWidth="20" markerHeight="28" orient="auto"><path d="M 1,1 V 13 L18,7 Z"></path></marker></defs><defs><marker id="compositionStart" class="extension" refX="0" refY="7" markerWidth="190" markerHeight="240" orient="auto"><path d="M 18,7 L9,13 L1,7 L9,1 Z"></path></marker></defs><defs><marker id="compositionEnd" refX="19" refY="7" markerWidth="20" markerHeight="28" orient="auto"><path d="M 18,7 L9,13 L1,7 L9,1 Z"></path></marker></defs><defs><marker id="aggregationStart" class="extension" refX="0" refY="7" markerWidth="190" markerHeight="240" orient="auto"><path d="M 18,7 L9,13 L1,7 L9,1 Z"></path></marker></defs><defs><marker id="aggregationEnd" refX="19" refY="7" markerWidth="20" markerHeight="28" orient="auto"><path d="M 18,7 L9,13 L1,7 L9,1 Z"></path></marker></defs><defs><marker id="dependencyStart" class="extension" refX="0" refY="7" markerWidth="190" markerHeight="240" orient="auto"><path d="M 5,7 L9,13 L1,7 L9,1 Z"></path></marker></defs><defs><marker id="dependencyEnd" refX="19" refY="7" markerWidth="20" markerHeight="28" orient="auto"><path d="M 18,7 L9,13 L14,7 L9,1 Z"></path></marker></defs><g id="classid-RevealJS-0" class="classGroup" transform="translate(197.75,0 )"><rect x="0" y="0" width="110" height="40" class=" "></rect><text y="15" x="0"><tspan x="28.5">«3rd party»</tspan><tspan class="title" dy="10" x="31.5">RevealJS</tspan></text><line x1="0" y1="31" y2="31" x2="110"></line><text x="5" y="41" fill="white" class="classText"></text><line x1="0" y1="36" y2="36" x2="110"></line><text x="5" y="51" fill="white" class="classText"></text></g><g id="classid-RevealMusicXML-1" class="classGroup" transform="translate(205.75,90 )"><rect x="0" y="0" width="94" height="30" class=" "></rect><text y="15" x="0"><tspan class="title" x="5">RevealMusicXML</tspan></text><line x1="0" y1="21" y2="21" x2="94"></line><text x="5" y="31" fill="white" class="classText"></text><line x1="0" y1="26" y2="26" x2="94"></line><text x="5" y="41" fill="white" class="classText"></text></g><g id="classid-VoidPlayer-2" class="classGroup" transform="translate(13.5,213.5 )"><rect x="0" y="0" width="63" height="30" class=" "></rect><text y="15" x="0"><tspan class="title" x="5">VoidPlayer</tspan></text><line x1="0" y1="21" y2="21" x2="63"></line><text x="5" y="31" fill="white" class="classText"></text><line x1="0" y1="26" y2="26" x2="63"></line><text x="5" y="41" fill="white" class="classText"></text></g><g id="classid-Toolkit-3" class="classGroup" transform="translate(345.5,170 )"><rect x="0" y="0" width="122" height="117" class=" "></rect><text y="15" x="0"><tspan x="36.5">«abstract»</tspan><tspan class="title" dy="10" x="44.5">Toolkit</tspan></text><line x1="0" y1="31" y2="31" x2="122"></line><text x="5" y="41" fill="white" class="classText"></text><line x1="0" y1="36" y2="36" x2="122"></line><text x="5" y="51" fill="white" class="classText"><tspan x="5">loadData()</tspan><tspan x="5" dy="10">getElementsAtTime()</tspan><tspan x="5" dy="10">getPageCount()</tspan><tspan x="5" dy="10">redoLayout()</tspan><tspan x="5" dy="10">renderToSVG(int page)</tspan><tspan x="5" dy="10">getOptions()</tspan><tspan x="5" dy="10">setOptions()</tspan></text></g><g id="classid-AudioPlayer-4" class="classGroup" transform="translate(0,350.5 )"><rect x="0" y="0" width="70" height="30" class=" "></rect><text y="15" x="0"><tspan class="title" x="5">AudioPlayer</tspan></text><line x1="0" y1="21" y2="21" x2="70"></line><text x="5" y="31" fill="white" class="classText"></text><line x1="0" y1="26" y2="26" x2="70"></line><text x="5" y="41" fill="white" class="classText"></text></g><g id="classid-MIDIPlayer-5" class="classGroup" transform="translate(142.5,350.5 )"><rect x="0" y="0" width="63" height="30" class=" "></rect><text y="15" x="0"><tspan class="title" x="5">MIDIPlayer</tspan></text><line x1="0" y1="21" y2="21" x2="63"></line><text x="5" y="31" fill="white" class="classText"></text><line x1="0" y1="26" y2="26" x2="63"></line><text x="5" y="41" fill="white" class="classText"></text></g><g id="classid-XMLPlayer-6" class="classGroup" transform="translate(208.25,444 )"><rect x="0" y="0" width="63" height="30" class=" "></rect><text y="15" x="0"><tspan class="title" x="5">XMLPlayer</tspan></text><line x1="0" y1="21" y2="21" x2="63"></line><text x="5" y="31" fill="white" class="classText"></text><line x1="0" y1="26" y2="26" x2="63"></line><text x="5" y="41" fill="white" class="classText"></text></g><g id="classid-MidiPlayer-7" class="classGroup" transform="translate(126.5,208.5 )"><rect x="0" y="0" width="115" height="40" class=" "></rect><text y="15" x="0"><tspan x="31">«3rd party»</tspan><tspan class="title" dy="10" x="31.5">MidiPlayer</tspan></text><line x1="0" y1="31" y2="31" x2="115"></line><text x="5" y="41" fill="white" class="classText"></text><line x1="0" y1="36" y2="36" x2="115"></line><text x="5" y="51" fill="white" class="classText"></text></g><g id="classid-Verovio-8" class="classGroup" transform="translate(284,337 )"><rect x="0" y="0" width="100" height="57" class=" "></rect><text y="15" x="0"><tspan x="23.5">«3rd party»</tspan><tspan class="title" dy="10" x="31.5">Verovio</tspan></text><line x1="0" y1="31" y2="31" x2="100"></line><text x="5" y="41" fill="white" class="classText"></text><line x1="0" y1="36" y2="36" x2="100"></line><text x="5" y="51" fill="white" class="classText"><tspan x="5">renderToMIDI()</tspan></text></g><g id="classid-PianoRollToolkit-9" class="classGroup" transform="translate(434,350.5 )"><rect x="0" y="0" width="90" height="30" class=" "></rect><text y="15" x="0"><tspan class="title" x="5">PianoRollToolkit</tspan></text><line x1="0" y1="21" y2="21" x2="90"></line><text x="5" y="31" fill="white" class="classText"></text><line x1="0" y1="26" y2="26" x2="90"></line><text x="5" y="41" fill="white" class="classText"></text></g><g id="classid-TextOnlyToolkit-10" class="classGroup" transform="translate(436,444 )"><rect x="0" y="0" width="86" height="30" class=" "></rect><text y="15" x="0"><tspan class="title" x="5">TextOnlyToolkit</tspan></text><line x1="0" y1="21" y2="21" x2="86"></line><text x="5" y="31" fill="white" class="classText"></text><line x1="0" y1="26" y2="26" x2="86"></line><text x="5" y="41" fill="white" class="classText"></text></g><path d="M252.75,40L252.75,44.166666666666664C252.75,48.333333333333336,252.75,56.666666666666664,252.75,65C252.75,73.33333333333333,252.75,81.66666666666667,252.75,85.83333333333333L252.75,90" id="edge0" class="relation dashed-line" marker-start="url(#dependencyStart)"></path><g class="classLabel"><rect class="box" x="219.25" y="53.5" width="68" height="16"></rect><text class="label" x="252.75" y="65" fill="red" text-anchor="middle">is a plugin for</text></g><path d="M205.75,114.04933814681107L178.95833333333334,119.20778178900923C152.16666666666666,124.36622543120738,98.58333333333333,134.6831127156037,71.79166666666667,151.25822302446852C45,167.83333333333334,45,190.66666666666666,45,202.08333333333334L45,213.5" id="edge1" class="relation dashed-line" marker-end="url(#dependencyEnd)"></path><g class="classLabel"><rect class="box" x="22.234375" y="124.5" width="139.015625" height="16.015625"></rect><text class="label" x="91.74272339689105" y="136.00019766124842" fill="red" text-anchor="middle">Needed to Play/Pause audio</text></g><path d="M299.75,117.22764227642277L317.5416666666667,121.85636856368563C335.3333333333333,126.48509485094853,370.9166666666667,135.74254742547427,388.7083333333333,144.5379403794038C406.5,153.33333333333334,406.5,161.66666666666666,406.5,165.83333333333334L406.5,170" id="edge2" class="relation dashed-line" marker-end="url(#dependencyEnd)"></path><g class="classLabel"><rect class="box" x="297.21875" y="122.75" width="136.015625" height="16.015625"></rect><text class="label" x="365.22230214747066" y="134.26108673755334" fill="red" text-anchor="middle">Needed to render any music</text></g><path d="M43.203592814371255,243.5L41.83632734530938,254.91666666666666C40.4690618762475,266.3333333333333,37.734530938123754,289.1666666666667,36.36726546906188,307C35,324.8333333333333,35,337.6666666666667,35,344.0833333333333L35,350.5" id="edge3" class="relation" marker-start="url(#extensionStart)"></path><path d="M55.68862275449102,243.5L63.82385229540918,254.91666666666666C71.95908183632734,266.3333333333333,88.22954091816366,289.1666666666667,104.70044024101328,307C121.17133956386293,324.8333333333333,137.84267912772586,337.6666666666667,146.1783489096573,344.0833333333333L154.51401869158877,350.5" id="edge4" class="relation" marker-start="url(#extensionStart)"></path><path d="M174,380.5L174,386.9166666666667C174,393.3333333333333,174,406.1666666666667,180.84895833333334,416.75C187.69791666666666,427.3333333333333,201.39583333333334,435.6666666666667,208.24479166666666,439.8333333333333L215.09375,444" id="edge5" class="relation" marker-start="url(#extensionStart)"></path><path d="M184,248.5L184,259.0833333333333C184,269.6666666666667,184,290.8333333333333,182.8006230529595,307.8333333333333C181.60124610591902,324.8333333333333,179.202492211838,337.6666666666667,178.00311526479751,344.0833333333333L176.803738317757,350.5" id="edge6" class="relation dashed-line" marker-start="url(#dependencyStart)"></path><g class="classLabel"><rect class="box" x="141.5" y="288.328125" width="85" height="16.015625"></rect><text class="label" x="184" y="299.83338697850377" fill="red" text-anchor="middle">uses to play MIDI</text></g><path d="M334,394L334,398.1666666666667C334,402.3333333333333,334,410.6666666666667,323.5416666666667,419.2718832891247C313.0833333333333,427.87709991158266,292.1666666666667,436.75419982316527,281.7083333333333,441.1927497789566L271.25,445.631299734748" id="edge7" class="relation dashed-line" marker-start="url(#dependencyStart)"></path><g class="classLabel"><rect class="box" x="260.125" y="415.921875" width="108.015625" height="16.015625"></rect><text class="label" x="314.1316071066454" y="427.4322091855086" fill="red" text-anchor="middle">uses to generate MIDI</text></g><path d="M355.7065868263473,287L352.08882235528944,291.1666666666667C348.4710578842316,295.3333333333333,341.23552894211576,303.6666666666667,337.6177644710579,312C334,320.3333333333333,334,328.6666666666667,334,332.8333333333333L334,337" id="edge8" class="relation dashed-line" marker-start="url(#extensionStart)"></path><path d="M457.2934131736527,287L460.91117764471056,291.1666666666667C464.5289421157684,295.3333333333333,471.76447105788424,303.6666666666667,475.38223552894215,314.25C479,324.8333333333333,479,337.6666666666667,479,344.0833333333333L479,350.5" id="edge9" class="relation dashed-line" marker-start="url(#extensionStart)"></path><path d="M479,380.5L479,386.9166666666667C479,393.3333333333333,479,406.1666666666667,479,416.75C479,427.3333333333333,479,435.6666666666667,479,439.8333333333333L479,444" id="edge10" class="relation" marker-start="url(#extensionStart)"></path></svg>